<?xml version="1.0" ?><!DOCTYPE svg  PUBLIC '-//W3C//DTD SVG 1.1//EN'  'http://www.w3.org/Graphics/SVG/1.1/DTD/svg11.dtd'><svg height="365px" style="shape-rendering:geometricPrecision; text-rendering:geometricPrecision; image-rendering:optimizeQuality; fill-rule:evenodd; clip-rule:evenodd" version="1.1" viewBox="0 0 10.51 10.51" width="365px" xml:space="preserve" xmlns="http://www.w3.org/2000/svg" xmlns:xlink="http://www.w3.org/1999/xlink" xmlns:xodm="http://www.corel.com/coreldraw/odm/2003"><defs><style type="text/css">
   <![CDATA[
    .fil0 {fill:none}
    .fil1 {fill:#2554B0;fill-rule:nonzero}
    .fil2 {fill:#479DFF;fill-rule:nonzero}
   ]]>
  </style></defs><g id="Layer_x0020_1"><rect class="fil0" height="10.51" width="10.51"/><path class="fil1" d="M4.3 7.26l-1.09 0c-0.1,0 -0.17,-0.07 -0.17,-0.17l0 -3.08c0,-0.2 0.08,-0.38 0.21,-0.51 0.13,-0.13 0.31,-0.21 0.5,-0.21 0.2,0 0.38,0.08 0.51,0.21 0.13,0.13 0.21,0.31 0.21,0.51l0 3.08c0,0.1 -0.07,0.17 -0.17,0.17zm-0.92 -0.34l0.75 0 0 -2.91c0,-0.11 -0.04,-0.2 -0.11,-0.27 -0.07,-0.07 -0.16,-0.11 -0.27,-0.11 -0.1,0 -0.19,0.04 -0.26,0.11 -0.07,0.07 -0.11,0.16 -0.11,0.27l0 2.91z"/><path class="fil1" d="M5.4 7.26l-1.1 0c-0.09,0 -0.17,-0.07 -0.17,-0.17l0 -3.08c0,-0.2 0.08,-0.38 0.21,-0.51 0.13,-0.13 0.31,-0.21 0.51,-0.21 0.2,0 0.38,0.08 0.51,0.21 0.13,0.13 0.21,0.31 0.21,0.51l0 3.08c0,0.1 -0.08,0.17 -0.17,0.17zm-0.93 -0.34l0.76 0 0 -2.91c0,-0.11 -0.04,-0.2 -0.11,-0.27 -0.07,-0.07 -0.17,-0.11 -0.27,-0.11 -0.1,0 -0.2,0.04 -0.27,0.11 -0.06,0.07 -0.11,0.16 -0.11,0.27l0 2.91z"/><path class="fil2" d="M7.35 6.97l-1.06 0.29c-0.09,0.02 -0.18,-0.03 -0.21,-0.12l-0.79 -2.99c-0.06,-0.19 -0.02,-0.38 0.07,-0.54l0 -0.01c0.1,-0.15 0.25,-0.28 0.43,-0.32l0.01 -0.01c0.19,-0.05 0.38,-0.01 0.54,0.08l0 0c0.16,0.09 0.28,0.24 0.33,0.43l0.8 2.99c0.03,0.09 -0.03,0.18 -0.12,0.2zm-0.98 -0.08l0.73 -0.2 -0.76 -2.83c-0.03,-0.09 -0.09,-0.17 -0.17,-0.22l0 0c-0.08,-0.05 -0.18,-0.06 -0.28,-0.04l-0.02 0.01c-0.09,0.02 -0.17,0.08 -0.21,0.16l-0.01 0.01c-0.05,0.08 -0.06,0.19 -0.04,0.29l0.76 2.82z"/></g></svg>