<svg xmlns="http://www.w3.org/2000/svg" xmlns:xlink="http://www.w3.org/1999/xlink" viewBox="0 0 90 220"><defs><style>.cls-1,.cls-2,.cls-3,.cls-6{fill:none;}.cls-1,.cls-2{clip-rule:evenodd;}.cls-2{clip-path:url(#clip-path);}.cls-4{clip-path:url(#clip-path-2);}.cls-5{clip-path:url(#clip-path-3);}.cls-6{stroke-linecap:round;stroke-linejoin:round;stroke-width:12.63px;}</style><clipPath id="clip-path"><polygon class="cls-1" points="0 229 90 229 90 0 0 0 0 229 0 229"/></clipPath><clipPath id="clip-path-2" transform="translate(-0.18 -4.95)"><polygon class="cls-2" points="0 0 90 0 90 229 0 229 0 0 0 0"/></clipPath><clipPath id="clip-path-3" transform="translate(-0.18 -4.95)"><polygon class="cls-3" points="0 229 90 229 90 0 0 0 0 229 0 229"/></clipPath></defs><title>banner-item-outline</title><g id="Capa_2" data-name="Capa 2"><g id="Capa_1-2" data-name="Capa 1"><g class="cls-4"><g class="cls-5"><path class="cls-6" d="M70.73,11.27H19.34C12.25,11.27,6.5,21.93,6.5,35.08V217.62L45,154.13l38.54,63.49V35.08c0-13.15-5.75-23.81-12.85-23.81Z" transform="translate(-0.18 -4.95)"/></g></g></g></g></svg>