<?xml version="1.0" encoding="utf-8"?>
<!-- Generator: Adobe Illustrator 26.0.3, SVG Export Plug-In . SVG Version: 6.00 Build 0)  -->
<svg version="1.1" id="Capa_1" xmlns="http://www.w3.org/2000/svg" xmlns:xlink="http://www.w3.org/1999/xlink" x="0px" y="0px"
	 viewBox="0 0 1098 841.89" style="enable-background:new 0 0 1098 841.89;" xml:space="preserve">
<style type="text/css">
	.st0{fill:#FFCC07;}
	.st1{fill:#818283;}
	.st2{fill:#E3990F;}
	.st3{fill:#FFEB1D;}
</style>
<g>
	<path class="st0" d="M628.62,511.47c31.41-50.9,60.08-97.4,89.35-144.82c-34.2-56.04-68.07-111.66-102.09-167.19
		c-20.89-34.11-40.71-68.99-63.53-101.8c-13.04-18.75-14.11-33.72,0.74-50.6c4.46-5.05,7.55-11.32,13.73-20.86
		c128.8,209.32,255.97,416,383.38,623.07c-38.75,12.84-52.74,8.35-71.49-22.11c-38.33-62.19-76.6-124.38-114.99-186.54
		c-4.46-7.22-9.36-14.14-16.25-24.54c-39.76,64.24-77.94,125.92-118.79,191.97c-40.05-64.57-78.59-126.72-119.53-192.75
		C449.66,511.68,391.57,605.81,331.58,703c79.57,0,155.9,0,235.83,0c-8.62-14.98-14.92-29.36-24.51-40.97
		c-4.34-5.26-15.21-6.83-23.21-7.04c-31.02-0.77-62.07-0.33-98.29-0.33c30.28-49.26,57.79-94.04,87.62-142.56
		c40.29,64.95,78.77,126.99,119.56,192.8c40.44-65.28,78.62-126.93,119.38-192.75c29.39,47.54,56.87,92.05,88.07,142.56
		c-29.18,0-53.27,2.76-76.48-0.62c-39.37-5.76-60.17,11.62-70.48,49.68c7.28,0.48,14.56,1.34,21.81,1.34
		c81.83,0.09,163.69,0.8,245.48-0.45c20.77-0.33,34.5,4.84,43.02,24.16c4.49,10.13,11.26,19.28,18.6,31.52
		c-302.3,0-601.86,0-904.92,0c10.07-16.7,18.72-33.25,29.74-47.99c3.6-4.81,13.43-6.72,20.44-6.86c35.63-0.65,71.28-0.3,107.26-0.3
		c79.36-128.63,158.19-256.42,238.62-386.8C549.34,383.35,587.58,445.15,628.62,511.47z"/>
	<path class="st1" d="M331.58,703c79.57,0,155.9,0,235.83,0c-8.62-14.98-14.92-29.36-24.51-40.97c-4.34-5.26-15.21-6.83-23.21-7.04
		c-31.02-0.77-62.07-0.33-98.29-0.33c30.28-49.26,57.79-94.04,87.62-142.56c40.29,64.95,78.77,126.99,119.56,192.8
		c40.44-65.28,78.62-126.93,119.38-192.75c29.39,47.54,56.87,92.05,88.07,142.56c-29.18,0-53.27,2.76-76.48-0.62
		c-39.37-5.76-60.17,11.62-70.48,49.68c7.28,0.48,14.56,1.34,21.81,1.34c81.83,0.09,163.69,0.8,245.48-0.45
		c20.77-0.33,34.5,4.84,43.02,24.16c4.49,10.13,11.26,19.28,18.6,31.52c-302.3,0-601.86,0-904.92,0
		c10.07-16.7,18.72-33.25,29.74-47.99c3.6-4.81,13.43-6.72,20.44-6.86c35.63-0.65,71.28-0.3,107.26-0.3"/>
	<path class="st2" d="M177.55,654.69C289,474.48,397.1,299.65,505.04,125.09c3.6,1.6,5.7,1.87,6.48,3
		c29.42,43.29,29.47,43.35,2.35,87.27c-84.53,136.8-169.75,273.21-253.09,410.75c-13.67,22.55-28.41,32.65-53.81,28.76
		C199.45,653.71,191.61,654.69,177.55,654.69z"/>
	<path class="st3" d="M568.9,221.24c31.26,50.81,60.29,97.99,89.46,145.38c-9.72,15.57-18.75,30.01-29.86,47.81
		c-30.87-49.95-59.93-96.89-89.38-144.55C548.48,254.58,557.49,239.9,568.9,221.24z"/>
</g>
</svg>
